<?xml version="1.0" encoding="iso-8859-1"?>
<!-- Generator: Adobe Illustrator 19.0.0, SVG Export Plug-In . SVG Version: 6.00 Build 0)  -->
<svg version="1.1" id="Capa_1" xmlns="http://www.w3.org/2000/svg" xmlns:xlink="http://www.w3.org/1999/xlink" x="0px" y="0px"
	 viewBox="0 0 512 512" style="enable-background:new 0 0 512 512;" xml:space="preserve">
<path style="fill:#FFE89C;" d="M140,462H0V140h140V462z"/>
<path style="fill:#8B8992;" d="M512,170H0V0h407c57.897,0,105,47.103,105,105V170z"/>
<path style="fill:#57555C;" d="M512,105C512,47.103,464.897,0,407,0H256v170h256V105z"/>
<path style="fill:#805142;" d="M366,462H244c-44.112,0-80-35.888-80-80s35.888-80,80-80h122c44.112,0,80,35.888,80,80
	S410.112,462,366,462z"/>
<path style="fill:#FF2B47;" d="M512,412h-30v-49c0-30.327-24.673-55-55-55h-57v-30h57c46.869,0,85,38.131,85,85V412z"/>
<path style="fill:#704639;" d="M366,302h-61v160h61c44.112,0,80-35.888,80-80S410.112,302,366,302z"/>
<path style="fill:#D18A56;" d="M385,282H231.507l-48-80H385V282z"/>
<rect x="305" y="202" style="fill:#B56D3C;" width="80" height="80"/>
<path style="fill:#FFC247;" d="M385,312H225v-40h160V312z"/>
<path style="fill:#FFA426;" d="M385,312h-80v-40h80V312z"/>
<path style="fill:#8B8992;" d="M512,512H0v-80h512V512z"/>
<path style="fill:#FFA426;" d="M408,126c-22.056,0-40-17.944-40-40s17.944-40,40-40s40,17.944,40,40S430.056,126,408,126z"/>
<rect x="256" y="432" style="fill:#57555C;" width="256" height="80"/>
<g>
</g>
<g>
</g>
<g>
</g>
<g>
</g>
<g>
</g>
<g>
</g>
<g>
</g>
<g>
</g>
<g>
</g>
<g>
</g>
<g>
</g>
<g>
</g>
<g>
</g>
<g>
</g>
<g>
</g>
</svg>
